<svg xmlns="http://www.w3.org/2000/svg" xmlns:xlink="http://www.w3.org/1999/xlink" version="1.1" x="0px" y="0px" viewBox="0 0 100 100" enable-background="new 0 0 100 100" xml:space="preserve">
  <g fill="white">
    <circle cx="50.001" cy="50" r="8.842"/>
    <path d="M88.176,47.016c-2.353,0.697-2.971,2.32-5.074,1.446c-2.107-0.873-1.734-2.143-3.591-1.445v1.037l-1.855-0.34l-0.092,0.464   c-0.409-6.253-2.884-11.93-6.766-16.365l0.372,0.25l1.074-1.554l0.733,0.734c1.805-0.82,0.645-1.455,1.514-3.561   c0.871-2.105,2.456-1.395,4.611-2.566c2.157-1.17,3.409-4.305,1.568-5.785c-1.48-1.841-4.616-0.588-5.785,1.567   c-1.169,2.157-0.461,3.741-2.567,4.611c-2.103,0.872-2.741-0.289-3.56,1.517l0.733,0.733l-1.554,1.073l0.25,0.373   c-4.435-3.882-10.112-6.356-16.365-6.765l0.463-0.092l-0.339-1.857h1.037c0.698-1.856-0.574-1.485-1.448-3.589   c-0.872-2.104,0.75-2.722,1.448-5.074C53.681,9.473,52.348,6.371,50,6.626c-2.348-0.255-3.68,2.847-2.984,5.199   c0.698,2.352,2.32,2.971,1.448,5.074c-0.874,2.104-2.143,1.733-1.448,3.589h1.039l-0.341,1.857l0.464,0.092   c-6.256,0.409-11.934,2.886-16.369,6.769l0.254-0.379l-1.554-1.071l0.735-0.733c-0.821-1.805-1.457-0.645-3.562-1.515   c-2.103-0.87-1.395-2.455-2.564-4.611c-1.172-2.155-4.307-3.407-5.788-1.566c-1.841,1.48-0.589,4.615,1.568,5.785   c2.156,1.17,3.74,0.46,4.611,2.566c0.869,2.106-0.291,2.741,1.514,3.561l0.735-0.734l1.071,1.554l0.377-0.252   c-3.883,4.435-6.359,10.113-6.768,16.368l-0.092-0.464l-1.855,0.341v-1.038c-1.858-0.697-1.487,0.574-3.591,1.446   c-2.103,0.873-2.723-0.749-5.074-1.446c-2.352-0.697-5.455,0.636-5.199,2.984c-0.256,2.348,2.847,3.68,5.199,2.983   c2.351-0.697,2.971-2.319,5.074-1.447c2.104,0.873,1.733,2.143,3.591,1.446v-1.036l1.855,0.339l0.092-0.463   c0.409,6.254,2.884,11.932,6.767,16.367l-0.376-0.252l-1.071,1.554l-0.735-0.733c-1.803,0.819-0.643,1.455-1.514,3.56   c-0.869,2.105-2.456,1.395-4.61,2.566c-2.156,1.17-3.407,4.306-1.567,5.786c1.48,1.84,4.614,0.589,5.785-1.567   c1.169-2.156,0.461-3.74,2.567-4.611c2.103-0.871,2.741,0.289,3.56-1.516l-0.735-0.733l1.554-1.073l-0.251-0.375   c4.434,3.882,10.111,6.357,16.364,6.767l-0.462,0.092l0.341,1.857h-1.036c-0.698,1.857,0.574,1.485,1.445,3.589   c0.873,2.104-0.75,2.723-1.445,5.075c-0.698,2.351,0.634,5.453,2.983,5.198c2.347,0.255,3.68-2.847,2.982-5.198   c-0.695-2.352-2.32-2.971-1.445-5.075c0.874-2.104,2.143-1.732,1.445-3.589h-1.037l0.341-1.857l-0.462-0.091   c6.253-0.409,11.93-2.885,16.364-6.768l-0.251,0.376l1.553,1.073l-0.734,0.733c0.819,1.806,1.457,0.644,3.56,1.516   c2.106,0.87,1.398,2.455,2.567,4.611c1.169,2.156,4.305,3.407,5.786,1.566c1.839-1.48,0.588-4.615-1.567-5.785   c-2.158-1.17-3.742-0.46-4.611-2.566c-0.871-2.105,0.289-2.741-1.517-3.56l-0.733,0.733l-1.074-1.553l-0.371,0.248   c3.881-4.435,6.356-10.111,6.765-16.364l0.092,0.464l1.855-0.341v1.037c1.857,0.698,1.484-0.574,3.591-1.446   c2.103-0.873,2.721,0.75,5.074,1.445c2.352,0.698,5.453-0.635,5.199-2.983C93.628,47.652,90.527,46.32,88.176,47.016z    M50.001,68.966c-10.477,0-18.967-8.491-18.967-18.965c0-10.475,8.491-18.965,18.967-18.965c10.473,0,18.964,8.49,18.964,18.965   C68.964,60.474,60.473,68.966,50.001,68.966z"/>
  </g>
</svg>